<svg xmlns="http://www.w3.org/2000/svg" version="1.1" xmlns:xlink="http://www.w3.org/1999/xlink" xmlns:svgjs="http://svgjs.dev/svgjs" width="1500" height="151" viewBox="0 0 1500 151"><g transform="matrix(1,0,0,1,-0.9090909090909918,0.32036998512528214)"><svg viewBox="0 0 396 40" data-background-color="#000000" preserveAspectRatio="xMidYMid meet" height="151" width="1500" xmlns="http://www.w3.org/2000/svg" xmlns:xlink="http://www.w3.org/1999/xlink"><g id="tight-bounds" transform="matrix(1,0,0,1,0.2400000000000091,-0.08486622122524068)"><svg viewBox="0 0 395.52 40.16973244245051" height="40.16973244245051" width="395.52"><g><svg viewBox="0 0 506.1290801194502 51.403392318319966" height="40.16973244245051" width="395.52"><g><rect width="4.612548226434794" height="51.403392318319966" x="93.92179831596098" y="0" fill="#ff6452" opacity="1" stroke-width="0" stroke="transparent" fill-opacity="1" class="rect-qz-0" data-fill-palette-color="primary" rx="1%" id="qz-0" data-palette-color="#ff6452"></rect></g><g transform="matrix(1,0,0,1,110.60908011945021,0.12786913512019638)"><svg viewBox="0 0 395.52 51.14765404807957" height="51.14765404807957" width="395.52"><g id="textblocktransform"><svg viewBox="0 0 395.52 51.14765404807957" height="51.14765404807957" width="395.52" id="textblock"><g><svg viewBox="0 0 395.52 51.14765404807957" height="51.14765404807957" width="395.52"><g transform="matrix(1,0,0,1,0,0)"><svg width="395.52" viewBox="2.05 -37.1 361.87 46.800000000000004" height="51.14765404807957" data-palette-color="#ff6452"><path d="M15.45 0.4Q11.5 0.4 7.83-0.83 4.15-2.05 2.05-4L2.05-4 3.9-7.9Q5.9-6.1 9.03-4.98 12.15-3.85 15.45-3.85L15.45-3.85Q19.8-3.85 21.95-5.33 24.1-6.8 24.1-9.25L24.1-9.25Q24.1-11.05 22.93-12.18 21.75-13.3 20.03-13.9 18.3-14.5 15.15-15.25L15.15-15.25Q11.2-16.2 8.78-17.15 6.35-18.1 4.63-20.08 2.9-22.05 2.9-25.4L2.9-25.4Q2.9-28.2 4.38-30.45 5.85-32.7 8.85-34.05 11.85-35.4 16.3-35.4L16.3-35.4Q19.4-35.4 22.4-34.6 25.4-33.8 27.55-32.3L27.55-32.3 25.9-28.3Q23.7-29.7 21.2-30.43 18.7-31.15 16.3-31.15L16.3-31.15Q12.05-31.15 9.93-29.6 7.8-28.05 7.8-25.6L7.8-25.6Q7.8-23.8 9-22.68 10.2-21.55 11.98-20.93 13.75-20.3 16.8-19.6L16.8-19.6Q20.75-18.65 23.15-17.7 25.55-16.75 27.28-14.8 29-12.85 29-9.55L29-9.55Q29-6.8 27.5-4.53 26-2.25 22.95-0.93 19.9 0.4 15.45 0.4L15.45 0.4ZM49.75-26.75Q54.8-26.75 57.77-23.83 60.75-20.9 60.75-15.25L60.75-15.25 60.75 0 55.95 0 55.95-14.7Q55.95-18.55 54.1-20.5 52.25-22.45 48.8-22.45L48.8-22.45Q44.9-22.45 42.65-20.18 40.4-17.9 40.4-13.65L40.4-13.65 40.4 0 35.6 0 35.6-26.5 40.2-26.5 40.2-22.5Q41.65-24.55 44.12-25.65 46.6-26.75 49.75-26.75L49.75-26.75ZM93.75-13.1Q93.75-12.55 93.65-11.65L93.65-11.65 72.15-11.65Q72.59-8.15 75.22-6.03 77.84-3.9 81.75-3.9L81.75-3.9Q86.5-3.9 89.4-7.1L89.4-7.1 92.05-4Q90.25-1.9 87.57-0.8 84.9 0.3 81.59 0.3L81.59 0.3Q77.4 0.3 74.15-1.43 70.9-3.15 69.12-6.25 67.34-9.35 67.34-13.25L67.34-13.25Q67.34-17.1 69.07-20.2 70.8-23.3 73.82-25.03 76.84-26.75 80.65-26.75L80.65-26.75Q84.45-26.75 87.42-25.03 90.4-23.3 92.07-20.2 93.75-17.1 93.75-13.1L93.75-13.1ZM80.65-22.7Q77.2-22.7 74.87-20.6 72.55-18.5 72.15-15.1L72.15-15.1 89.15-15.1Q88.75-18.45 86.42-20.58 84.09-22.7 80.65-22.7L80.65-22.7ZM109.29-26.75Q114.79-26.75 117.72-24.05 120.64-21.35 120.64-16L120.64-16 120.64 0 116.09 0 116.09-3.5Q114.89-1.65 112.67-0.68 110.44 0.3 107.39 0.3L107.39 0.3Q102.94 0.3 100.27-1.85 97.59-4 97.59-7.5L97.59-7.5Q97.59-11 100.14-13.13 102.69-15.25 108.24-15.25L108.24-15.25 115.84-15.25 115.84-16.2Q115.84-19.3 114.04-20.95 112.24-22.6 108.74-22.6L108.74-22.6Q106.39-22.6 104.14-21.83 101.89-21.05 100.34-19.75L100.34-19.75 98.34-23.35Q100.39-25 103.24-25.88 106.09-26.75 109.29-26.75L109.29-26.75ZM108.19-3.4Q110.94-3.4 112.94-4.63 114.94-5.85 115.84-8.1L115.84-8.1 115.84-11.8 108.44-11.8Q102.34-11.8 102.34-7.7L102.34-7.7Q102.34-5.7 103.89-4.55 105.44-3.4 108.19-3.4L108.19-3.4ZM141.24 0.3Q137.19 0.3 134.02-1.45 130.84-3.2 129.04-6.28 127.24-9.35 127.24-13.25L127.24-13.25Q127.24-17.15 129.04-20.23 130.84-23.3 134.02-25.03 137.19-26.75 141.24-26.75L141.24-26.75Q144.84-26.75 147.67-25.3 150.49-23.85 152.04-21.1L152.04-21.1 148.39-18.75Q147.14-20.65 145.29-21.6 143.44-22.55 141.19-22.55L141.19-22.55Q138.59-22.55 136.52-21.4 134.44-20.25 133.27-18.13 132.09-16 132.09-13.25L132.09-13.25Q132.09-10.45 133.27-8.33 134.44-6.2 136.52-5.05 138.59-3.9 141.19-3.9L141.19-3.9Q143.44-3.9 145.29-4.85 147.14-5.8 148.39-7.7L148.39-7.7 152.04-5.4Q150.49-2.65 147.67-1.18 144.84 0.3 141.24 0.3L141.24 0.3ZM178.14 0L168.19-12.35 162.69-7.25 162.69 0 157.89 0 157.89-37.1 162.69-37.1 162.69-13.3 177.14-26.5 182.94-26.5 171.79-15.55 184.04 0 178.14 0ZM211.54-13.1Q211.54-12.55 211.44-11.65L211.44-11.65 189.94-11.65Q190.39-8.15 193.01-6.03 195.64-3.9 199.54-3.9L199.54-3.9Q204.29-3.9 207.19-7.1L207.19-7.1 209.84-4Q208.04-1.9 205.36-0.8 202.69 0.3 199.39 0.3L199.39 0.3Q195.19 0.3 191.94-1.43 188.69-3.15 186.91-6.25 185.14-9.35 185.14-13.25L185.14-13.25Q185.14-17.1 186.86-20.2 188.59-23.3 191.61-25.03 194.64-26.75 198.44-26.75L198.44-26.75Q202.24-26.75 205.21-25.03 208.19-23.3 209.86-20.2 211.54-17.1 211.54-13.1L211.54-13.1ZM198.44-22.7Q194.99-22.7 192.66-20.6 190.34-18.5 189.94-15.1L189.94-15.1 206.94-15.1Q206.54-18.45 204.21-20.58 201.89-22.7 198.44-22.7L198.44-22.7ZM222.78-22.05Q224.03-24.35 226.48-25.55 228.93-26.75 232.43-26.75L232.43-26.75 232.43-22.1Q232.03-22.15 231.33-22.15L231.33-22.15Q227.43-22.15 225.21-19.83 222.98-17.5 222.98-13.2L222.98-13.2 222.98 0 218.18 0 218.18-26.5 222.78-26.5 222.78-22.05ZM263.03 0.4Q259.08 0.4 255.4-0.83 251.73-2.05 249.63-4L249.63-4 251.48-7.9Q253.48-6.1 256.6-4.98 259.73-3.85 263.03-3.85L263.03-3.85Q267.38-3.85 269.53-5.33 271.68-6.8 271.68-9.25L271.68-9.25Q271.68-11.05 270.5-12.18 269.33-13.3 267.6-13.9 265.88-14.5 262.73-15.25L262.73-15.25Q258.78-16.2 256.35-17.15 253.93-18.1 252.2-20.08 250.48-22.05 250.48-25.4L250.48-25.4Q250.48-28.2 251.95-30.45 253.43-32.7 256.43-34.05 259.43-35.4 263.88-35.4L263.88-35.4Q266.98-35.4 269.98-34.6 272.98-33.8 275.13-32.3L275.13-32.3 273.48-28.3Q271.28-29.7 268.78-30.43 266.28-31.15 263.88-31.15L263.88-31.15Q259.63-31.15 257.5-29.6 255.38-28.05 255.38-25.6L255.38-25.6Q255.38-23.8 256.58-22.68 257.78-21.55 259.55-20.93 261.33-20.3 264.38-19.6L264.38-19.6Q268.33-18.65 270.73-17.7 273.13-16.75 274.85-14.8 276.58-12.85 276.58-9.55L276.58-9.55Q276.58-6.8 275.08-4.53 273.58-2.25 270.53-0.93 267.48 0.4 263.03 0.4L263.03 0.4ZM297.23-26.75Q301.08-26.75 304.13-25.05 307.18-23.35 308.9-20.3 310.63-17.25 310.63-13.25L310.63-13.25Q310.63-9.25 308.9-6.18 307.18-3.1 304.13-1.4 301.08 0.3 297.23 0.3L297.23 0.3Q294.38 0.3 292-0.8 289.63-1.9 287.98-4L287.98-4 287.98 9.7 283.18 9.7 283.18-26.5 287.78-26.5 287.78-22.3Q289.38-24.5 291.83-25.63 294.28-26.75 297.23-26.75L297.23-26.75ZM296.83-3.9Q299.38-3.9 301.4-5.08 303.43-6.25 304.6-8.38 305.78-10.5 305.78-13.25L305.78-13.25Q305.78-16 304.6-18.13 303.43-20.25 301.4-21.4 299.38-22.55 296.83-22.55L296.83-22.55Q294.33-22.55 292.3-21.38 290.28-20.2 289.1-18.1 287.93-16 287.93-13.25L287.93-13.25Q287.93-10.5 289.08-8.38 290.23-6.25 292.28-5.08 294.33-3.9 296.83-3.9L296.83-3.9ZM328.62 0.3Q324.67 0.3 321.52-1.45 318.37-3.2 316.6-6.28 314.82-9.35 314.82-13.25L314.82-13.25Q314.82-17.15 316.6-20.23 318.37-23.3 321.52-25.03 324.67-26.75 328.62-26.75L328.62-26.75Q332.57-26.75 335.7-25.03 338.82-23.3 340.6-20.23 342.37-17.15 342.37-13.25L342.37-13.25Q342.37-9.35 340.6-6.28 338.82-3.2 335.7-1.45 332.57 0.3 328.62 0.3L328.62 0.3ZM328.62-3.9Q331.17-3.9 333.2-5.08 335.22-6.25 336.37-8.38 337.52-10.5 337.52-13.25L337.52-13.25Q337.52-16 336.37-18.13 335.22-20.25 333.2-21.4 331.17-22.55 328.62-22.55L328.62-22.55Q326.07-22.55 324.05-21.4 322.02-20.25 320.85-18.13 319.67-16 319.67-13.25L319.67-13.25Q319.67-10.5 320.85-8.38 322.02-6.25 324.05-5.08 326.07-3.9 328.62-3.9L328.62-3.9ZM362.42-5L363.92-1.55Q362.87-0.65 361.32-0.18 359.77 0.3 358.12 0.3L358.12 0.3Q354.12 0.3 351.92-1.85 349.72-4 349.72-8L349.72-8 349.72-22.55 345.22-22.55 345.22-26.5 349.72-26.5 349.72-32.3 354.52-32.3 354.52-26.5 362.12-26.5 362.12-22.55 354.52-22.55 354.52-8.2Q354.52-6.05 355.6-4.9 356.67-3.75 358.67-3.75L358.67-3.75Q360.87-3.75 362.42-5L362.42-5Z" opacity="1" transform="matrix(1,0,0,1,0,0)" fill="#ff6452" class="wordmark-text-0" data-fill-palette-color="primary" id="text-0"></path></svg></g></svg></g></svg></g></svg></g><g transform="matrix(1,0,0,1,0,0.12786913512019638)"><svg viewBox="0 0 81.84706473890655 51.14765404807957" height="51.14765404807957" width="81.84706473890655"><g><svg xmlns="http://www.w3.org/2000/svg" xmlns:xlink="http://www.w3.org/1999/xlink" version="1.1" x="0" y="0" viewBox="4.303343148667836 21.141999999999946 89.70465685133215 56.05800000000004" enable-background="new 0 0 100 100" xml:space="preserve" height="51.14765404807957" width="81.84706473890655" class="icon-icon-0" data-fill-palette-color="accent" id="icon-0"><g fill="#ff6452" data-fill-palette-color="accent"><circle cx="63.322" cy="34.112" r="0.68" fill="#ff6452" data-fill-palette-color="accent"></circle><circle cx="60.729" cy="37.055" r="0.68" fill="#ff6452" data-fill-palette-color="accent"></circle><path d="M93.995 66.35c-0.001-0.013-0.002-0.023-0.004-0.037-0.007-0.059-0.015-0.117-0.025-0.174-0.001-0.004-0.001-0.009-0.002-0.012-0.011-0.059-0.026-0.116-0.041-0.173-0.003-0.011-0.006-0.022-0.01-0.035-0.017-0.054-0.033-0.106-0.05-0.157-0.004-0.011-0.008-0.021-0.012-0.031-0.02-0.049-0.039-0.097-0.058-0.143-0.002-0.005-0.004-0.01-0.006-0.015-0.022-0.048-0.044-0.095-0.067-0.138-0.006-0.012-0.011-0.021-0.016-0.031-0.023-0.043-0.046-0.084-0.068-0.123-0.006-0.008-0.011-0.016-0.016-0.024-0.023-0.038-0.045-0.073-0.068-0.108-0.002-0.002-0.005-0.008-0.007-0.01-0.024-0.037-0.049-0.072-0.073-0.104-0.005-0.008-0.009-0.014-0.015-0.021-0.022-0.031-0.046-0.06-0.067-0.087-0.004-0.007-0.009-0.01-0.013-0.016-0.021-0.026-0.042-0.05-0.06-0.072-0.002-0.001-0.004-0.005-0.006-0.006-0.017-0.019-0.029-0.034-0.043-0.049 0.312-0.952 0.443-2.681 0.481-4.54 0.117-2.358 0.038-4.773-0.164-7.137-0.005-0.088-0.008-0.164-0.013-0.223l0.004-0.003-0.014-0.159 0 0-0.02-0.283h-0.007c-0.122-1.321-0.298-2.673-0.506-4.007-0.829-5.538-2.104-10.221-2.691-12.221-0.024-0.087-0.042-0.146-0.05-0.174-0.057-0.417-0.167-0.734-0.309-0.979-0.188-0.492-0.615-0.765-1.225-0.765-0.062 0-0.125 0.003-0.186 0.008-0.391 0.017-0.723 0.142-0.836 0.19-0.467 0.059-0.963 0.09-1.477 0.09-1.861 0-3.816-0.39-5.572-0.896-2.758-0.814-5.086-1.913-5.692-2.209 0.356-5.019-9.104-9.69-9.651-9.956-0.416-0.251-0.802-0.378-1.148-0.378-0.297 0-0.475 0.094-0.533 0.132-2.771 1.55-3.928 4.937-4.12 5.562-1.319 0.857-1.22 2.267-1.125 2.799-2.565 1.356-3.54 5.892-3.716 6.831-0.578 0.159-1.035 0.415-1.373 0.758-0.412 0.33-0.578 0.776-0.622 1.214-0.132 0.702 0.026 1.388 0.144 1.756-0.502 0.193-1.019 0.695-1.211 0.897-1.413 0.121-2.179 1.791-2.33 2.153l-1.705 1.37c-1.779-0.063-2.459 1.201-2.633 1.613l-2.98 1.034c-0.032-0.006-0.064-0.008-0.097-0.013l-0.006-0.01-0.042-0.005c-0.027-0.002-0.06-0.003-0.094-0.004-0.116-0.012-0.231-0.021-0.345-0.021-1.274 0-2.002 0.75-2.197 0.98l-2.861 1.002c-0.177-0.037-0.352-0.056-0.521-0.056-1.162 0-1.773 0.855-1.945 1.143l-2.937 1.096c-0.23-0.07-0.458-0.107-0.68-0.107-1.217 0-1.906 1.049-2.069 1.33-0.721 0.456-0.82 1.41-0.826 1.838-5.321 1.371-17.588 1.955-17.712 1.959L9.626 56.4c-3.411 0.58-3.879 4.646-3.943 5.627 0 0 0 0-0.001 0-0.064 0.018-0.124 0.039-0.18 0.066-0.005 0.004-0.011 0.006-0.015 0.008-0.054 0.027-0.105 0.058-0.153 0.092-0.006 0.006-0.012 0.01-0.018 0.014-0.046 0.035-0.089 0.072-0.129 0.113-0.006 0.008-0.013 0.014-0.019 0.02-0.04 0.042-0.076 0.086-0.109 0.133-0.006 0.008-0.012 0.014-0.017 0.021-0.033 0.047-0.064 0.095-0.093 0.146-0.004 0.008-0.009 0.017-0.013 0.024-0.028 0.053-0.055 0.104-0.079 0.159-0.003 0.008-0.006 0.017-0.009 0.023-0.023 0.057-0.046 0.113-0.066 0.17-0.002 0.006-0.003 0.014-0.005 0.018-0.02 0.059-0.038 0.115-0.053 0.175-0.001 0.005-0.002 0.008-0.003 0.013-0.016 0.06-0.03 0.118-0.042 0.176-0.002 0.009-0.004 0.018-0.005 0.024-0.011 0.056-0.022 0.111-0.031 0.166C4.64 63.6 4.638 63.611 4.636 63.622c-0.008 0.053-0.015 0.104-0.021 0.153-0.001 0.011-0.002 0.022-0.004 0.035-0.006 0.047-0.011 0.094-0.014 0.138-0.001 0.012-0.002 0.024-0.003 0.034-0.003 0.043-0.006 0.084-0.009 0.123 0 0.011-0.001 0.021-0.001 0.033-0.002 0.035-0.003 0.071-0.004 0.104 0 0.008 0 0.016 0 0.025 0 0.03-0.001 0.061-0.001 0.086 0 0.004 0 0.01 0 0.015 0 0.024 0 0.049 0 0.065-0.521 1.659-0.303 3.192 0.65 4.555 4.269 6.109 21.88 6.986 23.177 7.044 0.782 0.36 1.56 0.541 2.312 0.541 0.511 0 0.877-0.087 1.051-0.14 0.523 0.254 1.105 0.383 1.735 0.383 0.838 0 1.527-0.228 1.798-0.332 0.537 0.299 1.162 0.451 1.859 0.451 0.957 0 1.782-0.285 2.09-0.406 0.713 0.432 1.618 0.65 2.692 0.65 0.8 0 1.438-0.125 1.625-0.166 0.651 0.125 1.242 0.187 1.755 0.187 1.181 0 1.718-0.329 1.941-0.541 0.805 0.231 1.533 0.35 2.165 0.35 0.836 0 1.299-0.204 1.499-0.323 0.741 0.186 1.404 0.28 1.973 0.278 1.014 0 1.517-0.294 1.742-0.496 0.543 0.24 1.141 0.361 1.782 0.361 0.873 0 1.573-0.224 1.819-0.315 0.479 0.162 1.027 0.245 1.633 0.245 0.914 0 1.689-0.186 1.934-0.251 0.513 0.162 1.08 0.244 1.687 0.244 0.812 0 1.458-0.145 1.676-0.2 0.388 0.122 0.834 0.185 1.333 0.185 0.799 0 1.503-0.158 1.758-0.221 0.323 0.152 0.786 0.23 1.375 0.23 0.723 0 1.428-0.115 1.655-0.154 0.343 0.131 0.767 0.195 1.265 0.195 0.744 0 1.438-0.145 1.655-0.195 0.591 0.174 1.19 0.26 1.782 0.26 0.798 0 1.359-0.16 1.561-0.228 0.438 0.104 0.879 0.159 1.312 0.159 0.846 0 1.433-0.205 1.646-0.292 0.37 0.081 0.758 0.122 1.152 0.122 0.982 0 1.749-0.252 1.993-0.342 0.565 0.137 1.108 0.207 1.614 0.207 0.933 0 1.508-0.234 1.728-0.345 0.376 0.083 0.753 0.126 1.123 0.126 1.376 0 2.3-0.576 2.601-0.793 0.178 0.038 0.357 0.057 0.532 0.057 1.017 0 1.658-0.627 1.858-0.855 0.107-0.032 0.203-0.095 0.285-0.189 0.517-0.588 0.408-2.468 0.377-2.869l0.035-4.102c0.033-0.076 0.059-0.152 0.082-0.226 0.004-0.015 0.008-0.029 0.013-0.043 0.021-0.072 0.038-0.142 0.053-0.21 0.002-0.014 0.004-0.027 0.007-0.043 0.012-0.066 0.022-0.137 0.029-0.204 0-0.003 0-0.005 0.001-0.007 0.006-0.069 0.009-0.135 0.009-0.201 0-0.014 0-0.028 0-0.04C94.005 66.473 94.001 66.41 93.995 66.35zM92.846 74.191l-0.07 0.096c-0.006 0.006-0.553 0.73-1.52 0.73-0.172 0-0.352-0.021-0.529-0.067l-0.125-0.032-0.101 0.083c-0.009 0.008-0.911 0.753-2.378 0.755-0.361 0-0.73-0.046-1.102-0.135l-0.104-0.023-0.089 0.057c-0.005 0.003-0.524 0.318-1.556 0.318-0.489 0-1.018-0.07-1.571-0.209l-0.081-0.019-0.078 0.032c-0.008 0.002-0.812 0.332-1.878 0.332-0.386 0-0.763-0.043-1.12-0.127l-0.088-0.021L80.376 76c-0.005 0.003-0.583 0.279-1.508 0.279-0.415 0-0.839-0.055-1.261-0.163l-0.08-0.019-0.076 0.029c-0.001 0-0.021 0.007-0.061 0.02-0.027 0.008-0.061 0.021-0.102 0.031-0.027 0.01-0.061 0.018-0.096 0.026-0.25 0.063-0.664 0.142-1.196 0.144-0.423 0-0.851-0.05-1.276-0.146-0.142-0.033-0.283-0.07-0.425-0.113l-0.067-0.02-0.068 0.017c-0.001 0-0.021 0.005-0.057 0.013-0.191 0.045-0.854 0.186-1.545 0.186-0.465 0-0.849-0.062-1.14-0.186l-0.071-0.031-0.076 0.016c-0.008 0.001-0.824 0.16-1.633 0.16-0.553 0-0.975-0.075-1.221-0.215l-0.093-0.053-0.103 0.029c-0.008 0.001-0.811 0.229-1.717 0.229-0.475 0-0.895-0.062-1.244-0.183l-0.076-0.026-0.076 0.023c-0.008 0.002-0.707 0.201-1.613 0.201-0.582 0-1.121-0.081-1.602-0.241L61.82 75.98l-0.076 0.021c-0.01 0.003-0.859 0.251-1.866 0.251-0.585 0-1.106-0.082-1.55-0.244l-0.094-0.036-0.09 0.039c-0.008 0.002-0.756 0.312-1.719 0.312-0.632 0-1.215-0.131-1.73-0.389l-0.201-0.092-0.124 0.182c-0.002 0.002-0.147 0.209-0.616 0.334-0.212 0.06-0.492 0.101-0.854 0.101-0.555 0-1.211-0.097-1.955-0.291l-0.127-0.028-0.098 0.077c-0.004 0.003-0.366 0.285-1.291 0.285-0.624 0-1.356-0.126-2.176-0.374l-0.19-0.066-0.099 0.179c-0.003 0.004-0.316 0.454-1.642 0.454-0.496 0-1.071-0.063-1.711-0.188l-0.054-0.009-0.053 0.012c-0.008 0.003-0.689 0.164-1.562 0.164-1.033 0-1.884-0.215-2.53-0.641l-0.116-0.076-0.127 0.058c-0.008 0.004-0.926 0.414-2.01 0.414-0.653 0-1.228-0.147-1.708-0.44l-0.114-0.07-0.121 0.056c-0.007 0.004-0.763 0.338-1.714 0.338-0.586 0-1.124-0.125-1.598-0.375l-0.104-0.052-0.107 0.041c-0.004 0.003-0.367 0.144-0.978 0.144-0.693 0-1.414-0.174-2.145-0.516l-0.046-0.021-0.051-0.002c-0.183-0.01-18.637-0.825-22.831-6.831-0.865-1.239-1.057-2.636-0.569-4.152l0.013-0.043L5.084 64.46c0 0 0-0.008 0-0.019 0 0 0-0.002 0-0.004 0-0.011 0-0.027 0-0.045 0-0.004 0-0.009 0-0.014 0-0.02 0-0.044 0.001-0.07 0-0.004 0-0.01 0-0.017 0-0.028 0.001-0.06 0.003-0.093 0-0.006 0-0.012 0.001-0.018 0.001-0.035 0.003-0.074 0.006-0.115 0-0.006 0.001-0.012 0.001-0.017 0.003-0.043 0.007-0.086 0.011-0.132 0-0.005 0.001-0.009 0.002-0.014 0.004-0.049 0.011-0.098 0.017-0.148 0-0.001 0.001-0.003 0.001-0.005 0.007-0.051 0.015-0.104 0.026-0.159 0 0 0-0.001 0-0.003 0.01-0.052 0.021-0.104 0.033-0.157 0.001-0.005 0.002-0.01 0.003-0.015 0.012-0.051 0.025-0.101 0.04-0.151 0.002-0.007 0.004-0.013 0.007-0.02 0.015-0.047 0.031-0.096 0.049-0.141 0.003-0.01 0.005-0.016 0.008-0.021 0.019-0.046 0.038-0.091 0.06-0.133 0.002-0.008 0.006-0.014 0.01-0.018 0.022-0.043 0.046-0.082 0.072-0.121 0.002-0.004 0.006-0.01 0.01-0.015 0.027-0.038 0.056-0.075 0.087-0.106 0.003-0.002 0.006-0.004 0.009-0.008 0.032-0.033 0.067-0.062 0.105-0.088h0.001c0.037-0.025 0.077-0.047 0.12-0.062 0.003-0.001 0.005-0.003 0.008-0.003 0.298 0.555 1.478 1.979 6.047 3.522 2.776 0.939 6.192 1.553 9.964 2.026 1.862 0.258 3.953 0.485 6.292 0.666 1.115 0.104 2.246 0.204 3.385 0.305 3.071 0.271 6.203 0.406 9.574 0.406l0 0c6.611 0 12.844-0.515 18.871-1.013 3.82-0.315 7.427-0.614 10.93-0.764 0.012 0 0.021 0 0.032 0l6.224-0.225c0.709-0.023 1.396-0.043 2.059-0.062 1.916-0.058 3.629-0.108 5.146-0.174 5.109-0.096 8.151-0.709 8.82-1.783 0.003-0.008 0.006-0.012 0.009-0.018 0.005 0.006 0.01 0.014 0.014 0.021 0.022 0.033 0.045 0.067 0.066 0.104 0.002 0.007 0.005 0.01 0.009 0.016 0.022 0.041 0.048 0.084 0.069 0.129 0.005 0.012 0.01 0.022 0.016 0.033 0.02 0.041 0.036 0.08 0.053 0.121 0.004 0.01 0.01 0.02 0.014 0.031 0.019 0.049 0.037 0.102 0.053 0.156 0.003 0.011 0.007 0.023 0.012 0.035 0.012 0.045 0.021 0.092 0.031 0.14 0.003 0.014 0.006 0.026 0.008 0.042 0.012 0.059 0.018 0.117 0.023 0.178 0.001 0.012 0.001 0.023 0.002 0.037 0.003 0.051 0.003 0.104 0.002 0.159 0 0.017-0.001 0.032-0.002 0.049-0.003 0.067-0.01 0.132-0.021 0.2 0 0.007-0.002 0.018-0.004 0.025-0.012 0.061-0.025 0.123-0.044 0.187-0.006 0.019-0.011 0.038-0.017 0.056-0.023 0.073-0.049 0.146-0.081 0.219l-0.021 0.049-0.037 4.227 0.002 0.01c0.062 0.85 0.027 2.189-0.254 2.51-0.031 0.035-0.049 0.037-0.057 0.037L92.846 74.191zM28.347 53.115c0.104 0.671 0.486 2.275 1.785 2.275 0.019 0 0.038 0 0.056 0l0 0c0.02 0 0.405-0.006 0.719-0.401 0.454-0.576 0.514-1.626 0.181-3.128l2.893-1.079c0.065 0.487 0.446 2.981 1.446 2.981l0 0c0.034 0 0.07-0.003 0.105-0.009 0.017 0.001 0.049 0.003 0.093 0.003 0.192 0 0.676-0.05 1.003-0.509 0.469-0.66 0.432-1.864-0.11-3.581l2.924-1.023 0.023-0.009 0.002 0.014c0.024 0.123 0.591 3.03 1.992 3.03 0.087 0 0.175-0.011 0.265-0.033 0.073-0.004 0.477-0.045 0.749-0.463 0.418-0.644 0.302-1.795-0.348-3.434l3.048-1.057v0.001c0.042 0.126 1.029 3.097 2.103 3.097 0.054 0 0.106-0.006 0.159-0.021h0.008c0.105 0 0.646-0.027 0.983-0.542 0.496-0.761 0.312-2.172-0.542-4.189l1.78-1.431c0.385 0.848 1.699 3.531 2.923 3.531 0.09 0 0.179-0.014 0.263-0.042 0.021-0.006 0.492-0.164 0.7-0.786 0.24-0.714 0.136-2.113-1.661-4.745l0.051-0.057c0.299-0.328 0.903-0.859 1.26-0.885l0.143-0.011c2.27 3.507 3.877 4.269 4.844 4.269 0.488 0 0.765-0.198 0.824-0.249 0.102-0.043 0.17-0.126 0.198-0.241 0.267-1.086-3.211-5.424-4.508-6.881-0.144-0.159-0.284-0.271-0.412-0.352 0.188-0.091 0.397-0.167 0.633-0.226l0.113 0.031c1.003 0.271 2.14 0.577 2.799 1.349 0 0 0.001 0.001 0.001 0.002 0.091 0.135 0.316 0.392 0.889 0.928 1.336 1.303 3.234 2.873 3.635 3.202 0.724 3.924-1.969 4.508-2.084 4.531l-0.017 0.003-26.167 8.88c-3.109 0.896-5.033 0.836-5.178 0.832-0.028-0.004-0.055-0.01-0.082-0.017-0.219-0.062-0.832-0.373-0.937-1.856h0.003l-0.016-0.209C27.877 54.6 27.806 53.594 28.347 53.115zM58.809 30.005l0.199-0.091-0.062-0.211c-0.02-0.065-0.465-1.636 0.941-2.487l0.084-0.052 0.028-0.095c0.011-0.039 1.103-3.79 3.917-5.358l0.018-0.011c0.004-0.002 0.088-0.052 0.262-0.052 0.176 0 0.475 0.053 0.896 0.31l0.022 0.012c0.094 0.046 9.063 4.435 9.377 8.986-2.628-2.945-5.607-3.429-5.734-3.449-0.243-0.042-0.491-0.063-0.739-0.063-3.738 0-6.564 4.764-6.889 5.334-0.562 0.453-0.925 0.886-0.998 0.975-1.783 1.711-2.244 3.073-2.346 3.819-0.732-0.58-1.697-0.847-2.573-1.084C55.416 35.455 56.417 31.096 58.809 30.005zM83.27 66.729l-6.14 0.221c-1.817 0.056-3.792 0.123-5.924 0.212 0.378-1.026 1.338-4.081 1.11-8.111-0.254-4.507-2.121-11.103-9.566-16.933-1.334-1.136-2.762-2.384-3.645-3.2-0.324-0.316-0.615-0.613-0.842-0.873-0.02-0.31 0.012-1.816 2.227-3.936l0.023-0.025c0.008-0.01 0.381-0.477 0.986-0.952 0.846-0.657 1.689-0.992 2.516-0.992 0.111 0 0.217 0.006 0.318 0.018 0.02 0.002 0.037 0.003 0.055 0.006s0.033 0.005 0.049 0.008c0.416 0.068 0.818 0.228 1.207 0.48 8.289 5.548 13.896 10.448 16.846 13.241 0.341 0.355 1.322 1.365 2.478 2.477 2.05 2.207 3.712 3.439 5.021 4.102 0.363 0.244 0.931 0.522 1.72 0.613 0.278 0.055 0.532 0.075 0.756 0.075 0.259 0 0.46-0.031 0.615-0.067 0.06 1.032 0.226 4.318 0.163 7.225-0.079 1.521-0.241 3.018-0.508 4.451l-0.058 0.075 0.024 0.039c-0.449 1.246-3.301 1.618-8.375 1.834C83.986 66.721 83.637 66.727 83.27 66.729zM66.523 30.325c0-0.28 0.228-0.507 0.506-0.507 0.279 0 0.508 0.227 0.508 0.507 0 0.279-0.229 0.506-0.508 0.506C66.751 30.831 66.523 30.604 66.523 30.325zM27.387 54.952c0.048 0.636 0.279 1.987 1.346 2.22 2.873 4.598 2.246 5.852 2.245 5.854l-0.014 0.023c-0.393 0.734-0.906 1.15-1.528 1.235-1.552 0.215-3.366-1.599-3.498-1.731-1.961-2.463-7.455-2.818-7.694-2.832-7.286-0.271-8.442-2.199-8.625-2.803 0.026-0.006 0.051-0.014 0.078-0.018C10.202 56.875 22.046 56.294 27.387 54.952z" fill="#ff6452" data-fill-palette-color="accent"></path></g></svg></g></svg></g></svg></g><defs></defs></svg><rect width="395.52" height="40.16973244245051" fill="none" stroke="none" visibility="hidden"></rect></g></svg></g></svg>